# xmcd CD database file
# Copyright (C) 1993-1998 Ti Kan
#
# Track frame offsets:
#	225
#	25530
#	48615
#	64350
#	79272
#	98095
#	111752
#	126537
#	142807
#	157565
#	173772
#	198382
#	216820
#	237067
#	264115
#	282717
#
# Disc length: 4090 seconds
#
# Revision: 1
# Processed by: cddbd v1.4b41PL1 Copyright (c) Steve Scherf et al.
# Submitted via: CDValet v3.01 - Copyright (c) 1997 Greg Leichner
#
DISCID=db0ff710
DTITLE=Billy Joel - The greatest hits
DYEAR=1900
DGENRE=
TTITLE0=Piano man
TTITLE1=The stranger
TTITLE2=Movin' out (Anthony's song)
TTITLE3=She's always a woman
TTITLE4=You may be right
TTITLE5=She's got a way
TTITLE6=Pressure
TTITLE7=Tell her about it
TTITLE8=Uptown girl
TTITLE9=The longest time
TTITLE10=The night is still young
TTITLE11=Leningrad
TTITLE12=State of grace
TTITLE13=All about soul
TTITLE14=The river of dreams
TTITLE15=Two thousand years
EXTD=
EXTT0=
EXTT1=
EXTT2=
EXTT3=
EXTT4=
EXTT5=
EXTT6=
EXTT7=
EXTT8=
EXTT9=
EXTT10=
EXTT11=
EXTT12=
EXTT13=
EXTT14=
EXTT15=
PLAYORDER=
